<svg preserveAspectRatio="none" width="100%" height="100%" overflow="visible" style="display: block;" viewBox="0 0 24 24" fill="none" xmlns="http://www.w3.org/2000/svg">
<g id="stat_minus_1">
<mask id="mask0_0_9" style="mask-type:alpha" maskUnits="userSpaceOnUse" x="0" y="0" width="24" height="24">
<rect id="Bounding box" width="24" height="24" fill="var(--fill-0, #D9D9D9)"/>
</mask>
<g mask="url(#mask0_0_9)">
<path id="stat_minus_1_2" d="M11.625 14.8875C11.5083 14.8458 11.4 14.775 11.3 14.675L6.7 10.075C6.51667 9.89167 6.42083 9.6625 6.4125 9.3875C6.40417 9.1125 6.5 8.875 6.7 8.675C6.88333 8.49167 7.11667 8.4 7.4 8.4C7.68333 8.4 7.91667 8.49167 8.1 8.675L12 12.55L15.9 8.675C16.0833 8.49167 16.3125 8.39583 16.5875 8.3875C16.8625 8.37917 17.1 8.475 17.3 8.675C17.4833 8.85833 17.575 9.09167 17.575 9.375C17.575 9.65833 17.4833 9.89167 17.3 10.075L12.7 14.675C12.6 14.775 12.4917 14.8458 12.375 14.8875C12.2583 14.9292 12.1333 14.95 12 14.95C11.8667 14.95 11.7417 14.9292 11.625 14.8875Z" fill="var(--fill-0, #1C1B1F)"/>
</g>
</g>
</svg>
